<svg xmlns="http://www.w3.org/2000/svg" viewBox="0 0 265.28 79.97"><defs><style>.cls-1{fill:#00297f;}.cls-2{fill:#ffd706;}.cls-3{fill:#173319;}</style></defs><g id="Camada_2" data-name="Camada 2"><g id="Dados"><path class="cls-1" d="M186.4.53V79.41h78.88V.53Zm38.46,70.19h-5.53V68.09a12.73,12.73,0,0,1-8.94,3.43c-10.68,0-16-8.76-16-16.3s5.3-16.33,15.88-16.33,14.57,9.46,14.57,9.46L220,51.22S216.72,45,210.33,45a10.22,10.22,0,0,0,.11,20.44A9.68,9.68,0,0,0,218.58,61h-8.2V55.19h14.48Zm16.55.81a12.73,12.73,0,0,1-8.95-3.43v2.63h-5.53V55.19h14.48V61h-8.2a9.7,9.7,0,0,0,8.14,4.38A10.23,10.23,0,0,0,241.46,45c-6.38,0-9.68,6.26-9.68,6.26L227,48.35s4-9.47,14.59-9.47,15.89,8.79,15.89,16.34S252.1,71.53,241.41,71.53Z"></path><path class="cls-1" d="M133.22,1.42A25.06,25.06,0,0,0,124.78,0c-12.56,0-21,8-21,20.07V59.9c0,12,8.46,20.07,21,20.07a24.82,24.82,0,0,0,8.44-1.4Z"></path><path class="cls-2" d="M141.66,0a25.11,25.11,0,0,0-8.44,1.39C141,4.21,145.8,11,145.8,20.1V59.9c0,9-4.82,15.86-12.58,18.67a24.86,24.86,0,0,0,8.44,1.4c12.57,0,21-8.1,21-20.07V20.1C162.69,8,154.23,0,141.66,0Z"></path><path class="cls-3" d="M145.8,59.9V20.1c0-9.1-4.82-15.89-12.58-18.68C125.46,4.21,120.64,11,120.64,20.1V59.9c0,9,4.82,15.86,12.58,18.67C141,75.76,145.8,68.93,145.8,59.9Z"></path><path class="cls-1" d="M32.72,79.08V.79H14.2L0,8.8H15.84V79.08Z"></path><path class="cls-1" d="M97.46,76.81H58L84.56,42.27c7-9.22,11.32-17.69,11.32-24.54C95.88,6.83,88,0,76.45,0H59.56c-11.2,0-19,6.8-19,17.55V20.6H57.48V17.55c0-7.81,4.1-13.52,10.63-16.07C74.81,4.05,79,9.81,79,17.73c0,6.85-4.28,15.32-11.33,24.54L40.38,77.8v1.28H99.87V76.81Z"></path></g></g></svg>