<svg xmlns="http://www.w3.org/2000/svg" xmlns:xlink="http://www.w3.org/1999/xlink" id="Fundo" viewBox="0 0 1920 1080"><defs><style>.cls-1{fill:#f7f7f7;}.cls-2{clip-path:url(#clip-path);}.cls-3{fill:#00297f;}.cls-4{fill:#ffd706;}.cls-5{fill:#173319;}</style><clipPath id="clip-path"><rect class="cls-1" width="1920" height="1080"></rect></clipPath></defs><rect class="cls-1" width="1920" height="1080"></rect><g class="cls-2"><path class="cls-3" d="M1493.47-591.41c0,581.35-195.27,1074.56-564.71,1426.31-370.8,353-890.51,539.65-1503,539.65v98.3c638.17,0,1181.33-196,1570.76-566.76s595.22-888.58,595.22-1497.5Z"></path><path class="cls-3" d="M1731.48-591.41c0,648.09-220.83,1200.91-638.6,1598.68C677,1403.25,100.5,1612.55-574.21,1612.55v98.31c700.43,0,1300.34-218.68,1734.87-632.4C1598.4,661.68,1829.78,84.25,1829.78-591.41Z"></path><path class="cls-4" d="M1829.78,2751.26c0-675.66-231.38-1253.09-669.12-1669.87C726.13,667.67,126.22,449-574.21,449V547.3C100.5,547.3,677,756.6,1092.88,1152.58c417.77,397.77,638.6,950.59,638.6,1598.68Z"></path><path class="cls-4" d="M1591.77,2751.26c0-608.92-205.82-1126.75-595.22-1497.5S64,687-574.21,687v98.3C38.25,785.3,558,971.91,928.76,1325c369.44,351.74,564.71,844.95,564.71,1426.3Z"></path><path class="cls-5" d="M1086.08,1146.15q-36.09-34-73.76-66.22,37.67-32.19,73.76-66.23,37.25,32.23,73,66.23Q1123.34,1113.92,1086.08,1146.15Z"></path><rect class="cls-4" x="1493.89" y="-591.41" width="98.3" height="3342.67"></rect><rect class="cls-4" x="1731.89" y="-591.41" width="98.3" height="3342.66"></rect><path class="cls-5" d="M900.73,991.23q-41-30.32-83.64-58.63,39.81-32,77.71-66.22,41.51,28.38,81.57,58.62Q939.44,959.14,900.73,991.23Z"></path><path class="cls-5" d="M696.77,1138.58Q651.41,1108,604,1079.93q47.41-28,92.79-58.66,45,28.18,88.12,58.65Q741.74,1110.4,696.77,1138.58Z"></path></g></svg>