<?xml version="1.0" encoding="utf-8"?>
<!-- Generator: Adobe Illustrator 24.3.0, SVG Export Plug-In . SVG Version: 6.00 Build 0)  -->
<svg version="1.1" id="Camada_1" xmlns="http://www.w3.org/2000/svg" xmlns:xlink="http://www.w3.org/1999/xlink" x="0px" y="0px"
	 viewBox="0 0 78.9 78.9" style="enable-background:new 0 0 78.9 78.9;" xml:space="preserve">
<style type="text/css">
	.st0{fill:#FFFFFF;}
	.st1{fill:#00297F;}
</style>
<rect class="st0" width="78.9" height="79.2"/>
<g id="Camada_2_1_">
	<g id="Dados">
		<path class="st1" d="M0,0v78.9h78.9V0H0z M38.5,70.2h-5.5v-2.6c-2.4,2.3-5.6,3.5-8.9,3.4C13.3,71,8,62.2,8,54.7
			s5.3-16.3,15.9-16.3s14.6,9.5,14.6,9.5l-4.8,2.9c0,0-3.3-6.2-9.7-6.2c-5.6,0-10.2,4.6-10.2,10.3c0,5.6,4.6,10.2,10.3,10.2
			c3.3,0,6.4-1.7,8.1-4.4H24v-5.8h14.5L38.5,70.2z M55,71c-3.3,0.1-6.5-1.2-8.9-3.4v2.6h-5.5V54.7H55v5.8h-8.2
			c1.8,2.7,4.9,4.4,8.1,4.4c5.6-0.5,9.8-5.4,9.3-11c-0.4-4.9-4.3-8.9-9.2-9.3c-6.4,0-9.7,6.3-9.7,6.3l-4.8-2.9c0,0,4-9.5,14.6-9.5
			s15.9,8.8,15.9,16.3S65.7,71,55,71L55,71z"/>
	</g>
</g>
</svg>
